<?xml version="1.0" encoding="UTF-8"?>
<!DOCTYPE svg PUBLIC "-//W3C//DTD SVG 1.1//EN" "http://www.w3.org/Graphics/SVG/1.1/DTD/svg11.dtd">
<svg xmlns="http://www.w3.org/2000/svg" version="1.1" width="254px" height="200px" style="shape-rendering:geometricPrecision; text-rendering:geometricPrecision; image-rendering:optimizeQuality; fill-rule:evenodd; clip-rule:evenodd" xmlns:xlink="http://www.w3.org/1999/xlink">
<g><path style="opacity:1" fill="#fefefe" d="M -0.5,-0.5 C 84.1667,-0.5 168.833,-0.5 253.5,-0.5C 253.5,19.1667 253.5,38.8333 253.5,58.5C 252.244,56.6561 250.577,55.3228 248.5,54.5C 244.21,56.3127 240.21,58.646 236.5,61.5C 236.167,61.1667 235.833,60.8333 235.5,60.5C 239.151,53.6326 237.485,48.4659 230.5,45C 226.759,44.4979 223.092,44.4979 219.5,45C 222.934,37.8996 220.601,34.0663 212.5,33.5C 211.351,30.8467 209.351,29.68 206.5,30C 202.546,34.7423 198.713,39.5756 195,44.5C 195.311,43.0654 195.145,41.7321 194.5,40.5C 201.583,37.0928 203.25,31.9261 199.5,25C 189.968,20.1332 182.468,22.2998 177,31.5C 177.578,25.1981 177.911,18.8647 178,12.5C 175,11.1667 172,11.1667 169,12.5C 167.698,15.3751 166.865,18.3751 166.5,21.5C 165.5,21.5 164.5,21.5 163.5,21.5C 164.61,17.9488 164.61,14.4488 163.5,11C 158.04,8.08466 154.54,9.58466 153,15.5C 151.667,21.5 150.333,27.5 149,33.5C 147.374,41.7026 150.54,44.3693 158.5,41.5C 159.933,38.667 160.6,35.667 160.5,32.5C 161.5,32.5 162.5,32.5 163.5,32.5C 163.557,34.8845 163.223,37.2178 162.5,39.5C 163.818,44.0782 166.818,45.5782 171.5,44C 172.155,42.5134 173.155,41.3467 174.5,40.5C 177.73,48.4555 183.73,51.7889 192.5,50.5C 194.139,53.9973 196.805,55.4973 200.5,55C 203.123,51.588 205.623,48.088 208,44.5C 208.5,47.6667 210.333,49.5 213.5,50C 206.577,61.7877 209.577,68.9544 222.5,71.5C 219.821,74.3109 220.155,76.8109 223.5,79C 227.381,80.0585 230.381,78.8918 232.5,75.5C 240.376,72.7378 247.376,68.7378 253.5,63.5C 253.5,108.833 253.5,154.167 253.5,199.5C 168.833,199.5 84.1667,199.5 -0.5,199.5C -0.5,132.833 -0.5,66.1667 -0.5,-0.5 Z"/></g>
<g><path style="opacity:1" fill="#6babb6" d="M 212.5,33.5 C 220.601,34.0663 222.934,37.8996 219.5,45C 223.092,44.4979 226.759,44.4979 230.5,45C 237.485,48.4659 239.151,53.6326 235.5,60.5C 235.833,60.8333 236.167,61.1667 236.5,61.5C 240.21,58.646 244.21,56.3127 248.5,54.5C 250.577,55.3228 252.244,56.6561 253.5,58.5C 253.5,60.1667 253.5,61.8333 253.5,63.5C 247.376,68.7378 240.376,72.7378 232.5,75.5C 230.381,78.8918 227.381,80.0585 223.5,79C 220.155,76.8109 219.821,74.3109 222.5,71.5C 209.577,68.9544 206.577,61.7877 213.5,50C 210.333,49.5 208.5,47.6667 208,44.5C 205.623,48.088 203.123,51.588 200.5,55C 196.805,55.4973 194.139,53.9973 192.5,50.5C 183.73,51.7889 177.73,48.4555 174.5,40.5C 173.155,41.3467 172.155,42.5134 171.5,44C 166.818,45.5782 163.818,44.0782 162.5,39.5C 163.223,37.2178 163.557,34.8845 163.5,32.5C 162.5,32.5 161.5,32.5 160.5,32.5C 160.6,35.667 159.933,38.667 158.5,41.5C 150.54,44.3693 147.374,41.7026 149,33.5C 150.333,27.5 151.667,21.5 153,15.5C 154.54,9.58466 158.04,8.08466 163.5,11C 164.61,14.4488 164.61,17.9488 163.5,21.5C 164.5,21.5 165.5,21.5 166.5,21.5C 166.865,18.3751 167.698,15.3751 169,12.5C 172,11.1667 175,11.1667 178,12.5C 177.911,18.8647 177.578,25.1981 177,31.5C 182.468,22.2998 189.968,20.1332 199.5,25C 203.25,31.9261 201.583,37.0928 194.5,40.5C 195.145,41.7321 195.311,43.0654 195,44.5C 198.713,39.5756 202.546,34.7423 206.5,30C 209.351,29.68 211.351,30.8467 212.5,33.5 Z"/></g>
<g><path style="opacity:1" fill="#f9fbfc" d="M 156.5,11.5 C 158.467,11.2606 160.301,11.5939 162,12.5C 162.784,15.7603 162.617,18.9269 161.5,22C 163.833,22.6667 166.167,22.6667 168.5,22C 169.249,18.925 170.249,15.925 171.5,13C 173.567,12.4644 175.401,12.9644 177,14.5C 175.742,22.8699 174.076,31.2032 172,39.5C 170.333,40.8333 168.667,40.8333 167,39.5C 166.721,35.8297 166.888,32.163 167.5,28.5C 164.833,28.5 162.167,28.5 159.5,28.5C 159.326,31.8738 158.826,35.2072 158,38.5C 152.311,39.7993 150.311,37.466 152,31.5C 153.818,24.8783 155.318,18.2116 156.5,11.5 Z"/></g>
<g><path style="opacity:1" fill="#fbfcfd" d="M 186.5,24.5 C 191.081,23.9231 195.248,24.9231 199,27.5C 200.476,34.0321 197.81,37.3654 191,37.5C 189.105,37.3852 187.438,36.7185 186,35.5C 184.256,36.6492 184.089,37.9825 185.5,39.5C 188.027,40.2136 190.527,40.8803 193,41.5C 193.658,43.108 193.158,44.2747 191.5,45C 178.865,46.0305 175.365,40.8638 181,29.5C 182.73,27.5981 184.563,25.9314 186.5,24.5 Z"/></g>
<g><path style="opacity:1" fill="#68aab4" d="M 188.5,29.5 C 189.833,29.5 191.167,29.5 192.5,29.5C 192.143,33.3948 190.143,34.3948 186.5,32.5C 187.193,31.4822 187.859,30.4822 188.5,29.5 Z"/></g>
<g><path style="opacity:1" fill="#fbfdfd" d="M 212.5,33.5 C 212.586,34.4959 212.252,35.3292 211.5,36C 215.44,34.5742 218.44,35.7409 220.5,39.5C 219.518,42.3141 217.685,44.3141 215,45.5C 213.605,45.2196 212.438,44.5529 211.5,43.5C 212.246,42.2638 212.579,40.9305 212.5,39.5C 211.448,39.3505 210.448,39.5172 209.5,40C 206.5,43.6667 203.5,47.3333 200.5,51C 198.397,51.2514 197.063,50.2514 196.5,48C 199.761,42.4023 203.428,37.069 207.5,32C 209.282,31.8782 210.948,32.3782 212.5,33.5 Z"/></g>
<g><path style="opacity:1" fill="#65a8b3" d="M 87.5,32.5 C 88.552,32.3505 89.552,32.5172 90.5,33C 94.0945,36.0498 97.5945,39.2164 101,42.5C 99.9296,38.6042 99.2629,34.6042 99,30.5C 102.345,28.1537 105.845,25.9871 109.5,24C 114.937,21.0645 118.437,22.5645 120,28.5C 123.449,19.393 129.949,15.893 139.5,18C 143.486,22.6273 143.486,27.294 139.5,32C 144.129,37.742 142.795,42.0753 135.5,45C 125.368,47.8735 119.868,44.0402 119,33.5C 117.749,36.3807 115.583,38.214 112.5,39C 114.777,42.6312 115.444,46.4646 114.5,50.5C 110.455,52.5716 106.455,54.7383 102.5,57C 99.6529,57.9439 97.1529,57.4439 95,55.5C 93.3538,56.941 93.1871,58.6076 94.5,60.5C 93.6103,64.5327 91.1103,66.8661 87,67.5C 84.463,67.3 82.7963,65.9667 82,63.5C 79.7735,56.094 77.9401,48.594 76.5,41C 76.8693,35.6306 79.7026,32.464 85,31.5C 86.0698,31.528 86.9032,31.8614 87.5,32.5 Z"/></g>
<g><path style="opacity:1" fill="#fbfdfd" d="M 87.5,32.5 C 93.7661,38.429 100.099,44.429 106.5,50.5C 105.33,52.2547 103.663,53.2547 101.5,53.5C 96.9872,50.1765 93.6539,51.0099 91.5,56C 93.5925,60.0635 92.4258,62.5635 88,63.5C 86.3468,63.1802 85.3468,62.1802 85,60.5C 81.6215,52.192 80.1215,43.692 80.5,35C 82.6504,33.5886 84.9837,32.7553 87.5,32.5 Z"/></g>
<g><path style="opacity:1" fill="#f8fbfb" d="M 111.5,24.5 C 115.198,23.6798 117.531,25.0131 118.5,28.5C 117.493,34.3074 115.16,35.3074 111.5,31.5C 111.167,32.6667 110.833,33.8333 110.5,35C 111.191,38.9073 112.191,42.7407 113.5,46.5C 112.006,50.0753 109.839,50.4086 107,47.5C 105.167,42 103.333,36.5 101.5,31C 103.225,28.5268 105.392,28.0268 108,29.5C 108.997,27.6769 110.164,26.0103 111.5,24.5 Z"/></g>
<g><path style="opacity:1" fill="#fafcfc" d="M 129.5,19.5 C 138.906,17.3989 142.073,20.7323 139,29.5C 136.114,31.3385 133.281,33.1718 130.5,35C 130.667,36.5 131.5,37.3333 133,37.5C 135.155,36.7558 137.155,35.7558 139,34.5C 141.188,35.0593 141.854,36.3927 141,38.5C 131.455,45.5049 125.288,43.3382 122.5,32C 122.662,26.4994 124.995,22.3327 129.5,19.5 Z"/></g>
<g><path style="opacity:1" fill="#6eadb7" d="M 131.5,24.5 C 133.252,24.4176 134.252,25.2509 134.5,27C 133.623,28.8673 132.123,30.034 130,30.5C 129.257,28.1261 129.757,26.1261 131.5,24.5 Z"/></g>
<g><path style="opacity:1" fill="#74b0ba" d="M 84.5,40.5 C 84.8966,39.475 85.5632,39.3083 86.5,40C 89.2736,42.0638 91.1069,44.5638 92,47.5C 91,48.1667 90,48.8333 89,49.5C 87.9535,46.1411 86.4535,43.1411 84.5,40.5 Z"/></g>
<g><path style="opacity:1" fill="#fbfdfd" d="M 221.5,46.5 C 228.395,45.2809 233.395,47.7809 236.5,54C 235.643,57.5242 233.476,59.6909 230,60.5C 225.958,59.5523 222.125,58.219 218.5,56.5C 218.215,60.7166 220.215,62.8832 224.5,63C 225.126,63.7504 225.626,64.5838 226,65.5C 227.785,64.7599 229.618,64.0933 231.5,63.5C 232.594,64.868 232.26,66.0347 230.5,67C 227.422,66.9345 224.422,67.1012 221.5,67.5C 214.317,65.4676 211.484,60.8009 213,53.5C 215.441,50.5464 218.275,48.2131 221.5,46.5 Z"/></g>
<g><path style="opacity:1" fill="#6dacb7" d="M 224.5,51.5 C 225.873,51.3433 227.207,51.51 228.5,52C 229.451,52.7175 229.617,53.5509 229,54.5C 226.618,55.8663 224.452,55.533 222.5,53.5C 223.243,52.8182 223.909,52.1515 224.5,51.5 Z"/></g>
<g><path style="opacity:1" fill="#fafcfc" d="M 246.5,56.5 C 250.354,56.883 251.687,58.883 250.5,62.5C 245.717,66.3944 240.383,68.8944 234.5,70C 233.446,68.6124 233.28,67.1124 234,65.5C 238.322,62.601 242.489,59.601 246.5,56.5 Z"/></g>
<g><path style="opacity:1" fill="#f4f8f9" d="M 226.5,68.5 C 231.466,68.929 232.466,71.0957 229.5,75C 223.127,75.0296 222.127,72.8629 226.5,68.5 Z"/></g>
<g><path style="opacity:1" fill="#4ca559" d="M 135.5,73.5 C 171.972,71.8205 195.139,88.4872 205,123.5C 207.778,149.773 198.278,170.273 176.5,185C 152.981,197.447 130.314,196.113 108.5,181C 81.888,155.698 78.388,127.531 98,96.5C 107.999,84.5915 120.499,76.9248 135.5,73.5 Z"/></g>
<g><path style="opacity:1" fill="#6cacb6" d="M 63.5,59.5 C 67.85,58.925 71.0167,60.5916 73,64.5C 73.1922,66.5767 73.6922,68.5767 74.5,70.5C 78.4291,69.2334 80.7624,70.7334 81.5,75C 80.1745,83.6832 75.1745,88.3499 66.5,89C 68.2273,90.3894 69.5606,92.0561 70.5,94C 69.415,98.3376 67.415,102.171 64.5,105.5C 65.7019,110.397 64.3685,114.564 60.5,118C 59,118.167 57.5,118.333 56,118.5C 48.4642,117.33 40.9642,115.997 33.5,114.5C 32.4471,113.562 31.7804,112.395 31.5,111C 32.4376,106.735 34.771,103.735 38.5,102C 35.5732,96.1063 36.9065,91.1063 42.5,87C 41.6433,86.3109 40.9767,85.4776 40.5,84.5C 41.0148,81.2573 42.3481,78.4239 44.5,76C 50.0164,75.8045 54.5164,77.9712 58,82.5C 56.5955,77.6886 56.2622,72.6886 57,67.5C 58.4785,64.1725 60.6452,61.5058 63.5,59.5 Z"/></g>
<g><path style="opacity:1" fill="#fcfdfd" d="M 46.5,77.5 C 54.9341,81.7199 62.2675,87.3866 68.5,94.5C 68.1012,96.1966 67.6012,97.8632 67,99.5C 66.1074,100.081 65.1074,100.415 64,100.5C 58.4619,99.125 52.9619,97.9583 47.5,97C 53.0846,100.375 58.5846,103.875 64,107.5C 64.0481,109.544 63.5481,111.544 62.5,113.5C 53.0139,113.977 43.6806,112.81 34.5,110C 35.1381,107.22 36.6381,105.053 39,103.5C 44.6705,105.838 50.5038,107.338 56.5,108C 50.5,104.333 44.5,100.667 38.5,97C 39.3295,95.1839 40.1628,93.3506 41,91.5C 42.0617,90.9032 43.2284,90.5698 44.5,90.5C 50.1711,92.0107 55.8377,93.1773 61.5,94C 55.3305,90.4162 49.3305,86.5829 43.5,82.5C 44.2599,80.6396 45.2599,78.973 46.5,77.5 Z"/></g>
<g><path style="opacity:1" fill="#fafcfc" d="M 63.5,61.5 C 68.2793,61.2215 71.2793,63.3882 72.5,68C 71.5804,71.3394 70.247,74.5061 68.5,77.5C 73.4452,79.5613 75.4452,77.8946 74.5,72.5C 77.2605,71.9147 78.9272,72.9147 79.5,75.5C 76.9111,84.9835 71.5778,86.9835 63.5,81.5C 56.9022,74.7238 56.9022,68.0571 63.5,61.5 Z"/></g>
<g><path style="opacity:1" fill="#73b0ba" d="M 64.5,68.5 C 68.8767,69.6128 69.5434,71.9462 66.5,75.5C 64.267,73.4306 63.6004,71.0972 64.5,68.5 Z"/></g>
<g><path style="opacity:1" fill="#fbfdfb" d="M 140.5,103.5 C 160.336,102.839 171.336,112.339 173.5,132C 173.301,141.065 169.634,148.398 162.5,154C 154.227,158.371 145.561,161.871 136.5,164.5C 135.24,162.647 135.24,160.814 136.5,159C 118.077,149.064 113.244,134.564 122,115.5C 127.022,109.582 133.188,105.582 140.5,103.5 Z"/></g>
<g><path style="opacity:1" fill="#f7d552" d="M 26.5,125.5 C 27.8734,125.343 29.2068,125.51 30.5,126C 36.5008,130.336 42.8341,134.169 49.5,137.5C 49.5815,134.667 49.7482,131.667 50,128.5C 51.3957,126.473 53.0624,126.14 55,127.5C 59.1218,136.74 62.9552,146.073 66.5,155.5C 62.2052,168.079 54.2052,170.913 42.5,164C 34.0668,159.703 26.2334,154.536 19,148.5C 18.2174,146.567 18.7174,145.067 20.5,144C 16.251,140.436 16.5843,137.769 21.5,136C 17.937,133.768 17.7703,131.602 21,129.5C 23.453,130.827 25.953,131.661 28.5,132C 25.6272,130.439 24.9606,128.272 26.5,125.5 Z"/></g>
<g><path style="opacity:1" fill="#50a75c" d="M 143.5,143.5 C 149.5,144.833 155.5,144.833 161.5,143.5C 160.608,148.38 157.608,150.713 152.5,150.5C 149.771,150.705 147.438,149.872 145.5,148C 143.963,146.89 143.297,145.39 143.5,143.5 Z"/></g>
<g><path style="opacity:1" fill="#f9de71" d="M 11.5,148.5 C 13.6795,154.179 17.6795,158.012 23.5,160C 15.8578,160.195 11.8578,156.362 11.5,148.5 Z"/></g>
<g><path style="opacity:1" fill="#f9de71" d="M 5.5,152.5 C 7.9154,155.1 10.2487,157.934 12.5,161C 15.1667,162.667 17.8333,164.333 20.5,166C 12.2601,165.267 7.26015,160.767 5.5,152.5 Z"/></g>
</svg>
